name analog
datacolumns 19
datarows 42
range 0.5895 0.61
endheader
time	ground_force_vx	ground_force_vy	ground_force_vz	ground_force_px	ground_force_py	ground_force_pz	l_ground_force_vx	l_ground_force_vy	l_ground_force_vz	l_ground_force_px	l_ground_force_py	l_ground_force_pz	ground_torque_x	ground_torque_y	ground_torque_z	l_ground_torque_x	l_ground_torque_y	l_ground_torque_z
0.5895	-0.0	-0.0	-0.0	-0.0	-0.0	-0.0	-0.0	-0.0	-0.0	-0.0	-0.0	-0.0	-0.0	-0.0	-0.0	-0.0	-0.0	-0.0
0.59	-0.0	-0.0	-0.0	-0.0	-0.0	-0.0	-0.0	-0.0	-0.0	-0.0	-0.0	-0.0	-0.0	-0.0	-0.0	-0.0	-0.0	-0.0
0.5905	-0.0	-0.0	-0.0	-0.0	-0.0	-0.0	-0.0	-0.0	-0.0	-0.0	-0.0	-0.0	-0.0	-0.0	-0.0	-0.0	-0.0	-0.0
0.591	-0.0	-0.0	-0.0	-0.0	-0.0	-0.0	-0.0	-0.0	-0.0	-0.0	-0.0	-0.0	-0.0	-0.0	-0.0	-0.0	-0.0	-0.0
0.5915	-0.0	-0.0	-0.0	-0.0	-0.0	-0.0	-0.0	-0.0	-0.0	-0.0	-0.0	-0.0	-0.0	-0.0	-0.0	-0.0	-0.0	-0.0
0.592	-0.0	-0.0	-0.0	-0.0	-0.0	-0.0	10.964744567871094	-13.427741050720217	-324.5452575683594	-0.0	-0.0	-0.0	-0.0	-0.0	-0.0	45762.2109375	53039.7890625	-840.5718994140625
0.5925	-0.0	-0.0	-0.0	-0.0	-0.0	-0.0	-166.92727661132812	-86.68904113769531	-468.0369262695313	-0.0	-0.0	-0.0	-0.0	-0.0	-0.0	70660.53125	78668.84375	-35299.3828125
0.593	-0.0	-0.0	-0.0	-44.05794143676758	-10.47374153137207	-239.4385986328125	-241.0006561279297	-132.26168823242188	-462.249267578125	-0.0	-0.0	-0.0	-0.0	-0.0	-0.0	66966.875	80391.5078125	-57956.2734375
0.5935	-0.0	-0.0	-0.0	-199.0994873046875	95.45238494873048	-468.6471862792969	-104.90739440917967	-323.91259765625	-1455.11181640625	-0.0	-0.0	-0.0	-0.0	-0.0	-0.0	249641.0625	171115.140625	-52117.1953125
0.594	-0.0	-0.0	-0.0	-187.48403930664065	236.07278442382807	-633.9598999023438	457.0745239257813	-257.932861328125	-4378.24169921875	-0.0	-0.0	-0.0	-0.0	-0.0	-0.0	889881.1875	288785.71875	73065.1484375
0.5945	-0.0	-0.0	-0.0	205.61265563964844	325.89093017578125	-2406.054931640625	843.001953125	-87.28480529785156	-4046.99462890625	-0.0	-0.0	-0.0	-0.0	-0.0	-0.0	835872.4375	253978.390625	163280.171875
0.595	-0.0	-0.0	-0.0	842.2974853515625	79.21849060058594	-3007.730712890625	326.8750915527344	-54.38290786743164	-2720.747802734375	-0.0	-0.0	-0.0	-0.0	-0.0	-0.0	553526.6875	221876.4375	56164.23046875
0.5955	-0.0	-0.0	-0.0	555.3271484375	-85.37860870361328	-2015.047607421875	-40.19064712524414	-150.136962890625	-2083.309814453125	-0.0	-0.0	-0.0	-0.0	-0.0	-0.0	403632.46875	218276.84375	-32972.72265625
0.596	-0.0	-0.0	-0.0	192.3916778564453	55.58449172973633	-1615.244384765625	-249.5531311035156	-218.06756591796875	-1568.5484619140625	-0.0	-0.0	-0.0	-0.0	-0.0	-0.0	284841.0	204841.265625	-84001.4140625
0.5965	-0.0	-0.0	-0.0	-33.28089904785156	230.38504028320312	-1297.00830078125	-368.7445983886719	-249.4201812744141	-1296.4832763671875	-0.0	-0.0	-0.0	-0.0	-0.0	-0.0	226124.390625	200607.0625	-109761.234375
0.597	-0.0	-0.0	-0.0	-191.06602478027344	272.212158203125	-1010.3223266601562	-357.2491760253906	-248.10763549804688	-1158.9508056640625	-0.0	-0.0	-0.0	-0.0	-0.0	-0.0	193959.21875	195942.046875	-106785.3828125
0.5975	-0.0	-0.0	-0.0	-272.8185729980469	257.342041015625	-818.920654296875	-279.1655578613281	-264.8182067871094	-1098.8876953125	-0.0	-0.0	-0.0	-0.0	-0.0	-0.0	178460.328125	189808.265625	-96755.4375
0.598	-0.0	-0.0	-0.0	-269.85821533203125	220.97998046875	-722.9735717773438	-243.05062866210935	-265.3127746582031	-1124.67041015625	-0.0	-0.0	-0.0	-0.0	-0.0	-0.0	182473.046875	192124.71875	-90125.2578125
0.5985	-0.0	-0.0	-0.0	-250.29591369628903	182.4125518798828	-702.2413940429688	-214.7053375244141	-249.1724853515625	-1211.2421875	-0.0	-0.0	-0.0	-0.0	-0.0	-0.0	201844.265625	199291.0	-83838.1015625
0.599	-0.0	-0.0	-0.0	-219.19554138183597	159.07962036132812	-768.7818603515625	-181.505859375	-241.601806640625	-1355.2979736328125	-0.0	-0.0	-0.0	-0.0	-0.0	-0.0	233519.90625	208027.328125	-76922.3125
0.5995	-0.0	-0.0	-0.0	-166.599365234375	133.9816436767578	-894.8341064453125	-122.21517181396484	-242.2136993408203	-1482.5650634765625	-0.0	-0.0	-0.0	-0.0	-0.0	-0.0	262271.1875	212578.84375	-65753.71875
0.6	-0.0	-0.0	-0.0	-89.09075164794922	103.66110229492188	-1007.8980712890624	-75.0140380859375	-236.19329833984372	-1538.568359375	-0.0	-0.0	-0.0	-0.0	-0.0	-0.0	275665.9375	211154.859375	-56903.79296875
0.6005	-0.0	-0.0	-0.0	-23.30684280395508	87.61729431152344	-1043.4332275390625	-64.95716857910156	-224.6691436767578	-1519.677734375	-0.0	-0.0	-0.0	-0.0	-0.0	-0.0	273986.21875	205947.5625	-54416.84765625
0.601	-0.0	-0.0	-0.0	6.225598335266113	91.6960678100586	-1028.106689453125	-58.99267578125	-217.40945434570312	-1470.3140869140625	-0.0	-0.0	-0.0	-0.0	-0.0	-0.0	265073.78125	198725.90625	-52729.7265625
0.6015	-0.0	-0.0	-0.0	7.092875957489014	114.17218017578124	-1002.565185546875	-45.07148361206055	-217.53811645507807	-1418.7037353515625	-0.0	-0.0	-0.0	-0.0	-0.0	-0.0	255858.53125	189718.296875	-49893.234375
0.602	-0.0	-0.0	-0.0	-0.7896656394004822	137.47372436523438	-980.5584106445312	-31.756689071655277	-213.4190368652344	-1372.2947998046875	-0.0	-0.0	-0.0	-0.0	-0.0	-0.0	247777.40625	181279.125	-46085.12890625
0.6025	-0.0	-0.0	-0.0	-8.448202133178711	149.0193328857422	-953.5020751953124	-22.136659622192383	-201.4845428466797	-1331.498046875	-0.0	-0.0	-0.0	-0.0	-0.0	-0.0	241284.03125	173379.125	-42111.5546875
0.603	-0.0	-0.0	-0.0	-14.788491249084473	148.64877319335938	-945.543701171875	-18.8274040222168	-187.75753784179688	-1304.7247314453125	-0.0	-0.0	-0.0	-0.0	-0.0	-0.0	237586.421875	167103.609375	-39279.046875
0.6035	-0.0	-0.0	-0.0	-12.558465957641602	135.19131469726562	-964.5592651367188	-19.33204841613769	-177.86663818359375	-1286.3560791015625	-0.0	-0.0	-0.0	-0.0	-0.0	-0.0	236198.71875	162019.46875	-37775.77734375
0.604	-0.0	-0.0	-0.0	-0.9414822459220886	121.36285400390624	-1001.0696411132812	-18.608299255371094	-170.6514129638672	-1267.6636962890625	-0.0	-0.0	-0.0	-0.0	-0.0	-0.0	233578.265625	156684.875	-35991.41796875
0.6045	-0.0	-0.0	-0.0	12.583839416503906	111.66090393066406	-1030.3314208984375	-18.758777618408203	-164.26602172851562	-1225.3128662109375	-0.0	-0.0	-0.0	-0.0	-0.0	-0.0	226426.265625	149958.65625	-34353.82421875
0.605	-0.0	-0.0	-0.0	20.607627868652344	107.223876953125	-1039.055419921875	-22.78415870666504	-157.50645446777344	-1169.5087890625	-0.0	-0.0	-0.0	-0.0	-0.0	-0.0	215547.125	142814.078125	-33676.765625
0.6055	-0.0	-0.0	-0.0	22.93450927734375	107.68077850341795	-1024.9869384765625	-31.76978302001953	-151.39401245117188	-1108.9188232421875	-0.0	-0.0	-0.0	-0.0	-0.0	-0.0	204014.984375	135200.375	-33681.55859375
0.606	-0.0	-0.0	-0.0	19.526514053344727	109.89778137207033	-998.0865478515624	-40.64767837524414	-144.28897094726562	-1049.56689453125	-0.0	-0.0	-0.0	-0.0	-0.0	-0.0	192423.765625	127750.765625	-33615.5859375
0.6065	-0.0	-0.0	-0.0	14.28641128540039	111.4792251586914	-968.4092407226562	-44.48467254638672	-137.521728515625	-991.2501220703124	-0.0	-0.0	-0.0	-0.0	-0.0	-0.0	181872.078125	120094.8203125	-32540.1953125
0.607	-0.0	-0.0	-0.0	9.285655975341797	112.17449188232422	-936.2417602539062	-43.63801574707031	-129.59652709960938	-938.0029296875	-0.0	-0.0	-0.0	-0.0	-0.0	-0.0	171907.25	112872.1015625	-30617.23046875
0.6075	-0.0	-0.0	-0.0	7.79404878616333	112.17456817626952	-903.4299926757812	-40.07252883911133	-120.79041290283205	-891.3175048828125	-0.0	-0.0	-0.0	-0.0	-0.0	-0.0	163478.703125	105866.2109375	-27913.306640625
0.608	-0.0	-0.0	-0.0	8.783235549926758	112.56310272216795	-874.5028076171875	-33.97623443603516	-112.50529479980467	-850.24365234375	-0.0	-0.0	-0.0	-0.0	-0.0	-0.0	155993.890625	99498.2265625	-24848.9765625
0.6085	-0.0	-0.0	-0.0	11.662222862243652	112.49878692626952	-847.3753051757812	-28.032506942749023	-104.92606353759766	-812.887939453125	-0.0	-0.0	-0.0	-0.0	-0.0	-0.0	149235.15625	93598.6796875	-22135.46875
0.609	-0.0	-0.0	-0.0	15.797657012939451	110.96823120117188	-816.8758544921875	-22.16202735900879	-99.1058120727539	-775.087158203125	-0.0	-0.0	-0.0	-0.0	-0.0	-0.0	141871.375	87811.140625	-19837.8125
0.6095	-0.0	-0.0	-0.0	19.77265739440918	107.75164031982422	-783.4192504882812	-18.15377426147461	-95.17898559570312	-733.2230224609375	-0.0	-0.0	-0.0	-0.0	-0.0	-0.0	134182.546875	82644.046875	-17946.255859375
0.61	-0.0	-0.0	-0.0	22.65312957763672	105.08474731445312	-746.27783203125	-14.886552810668944	-92.53794860839844	-690.4718627929688	-0.0	-0.0	-0.0	-0.0	-0.0	-0.0	125988.65625	77621.5	-16371.193359375
